<svg width="109" height="24" viewBox="0 0 109 24" fill="none" xmlns="http://www.w3.org/2000/svg">
<path d="M0.68 15.82V14.02L7.58 5H10.36L3.56 14.02L2.26 13.62H13.36V15.82H0.68ZM8.36 19V15.82L8.44 13.62V10.8H10.88V19H8.36ZM16.1509 11.52C15.6976 11.52 15.3109 11.3667 14.9909 11.06C14.6709 10.74 14.5109 10.34 14.5109 9.86C14.5109 9.35333 14.6709 8.95333 14.9909 8.66C15.3109 8.35333 15.6976 8.2 16.1509 8.2C16.6043 8.2 16.9909 8.35333 17.3109 8.66C17.6309 8.95333 17.7909 9.35333 17.7909 9.86C17.7909 10.34 17.6309 10.74 17.3109 11.06C16.9909 11.3667 16.6043 11.52 16.1509 11.52ZM16.1509 19.14C15.6976 19.14 15.3109 18.9867 14.9909 18.68C14.6709 18.36 14.5109 17.96 14.5109 17.48C14.5109 16.9733 14.6709 16.5733 14.9909 16.28C15.3109 15.9733 15.6976 15.82 16.1509 15.82C16.6043 15.82 16.9909 15.9733 17.3109 16.28C17.6309 16.5733 17.7909 16.9733 17.7909 17.48C17.7909 17.96 17.6309 18.36 17.3109 18.68C16.9909 18.9867 16.6043 19.14 16.1509 19.14ZM19.2938 19V17.26L24.8538 11.98C25.3204 11.54 25.6671 11.1533 25.8938 10.82C26.1204 10.4867 26.2671 10.18 26.3338 9.9C26.4138 9.60667 26.4538 9.33333 26.4538 9.08C26.4538 8.44 26.2338 7.94667 25.7938 7.6C25.3538 7.24 24.7071 7.06 23.8538 7.06C23.1738 7.06 22.5538 7.18 21.9938 7.42C21.4471 7.66 20.9738 8.02667 20.5738 8.52L18.7538 7.12C19.3004 6.38667 20.0338 5.82 20.9538 5.42C21.8871 5.00667 22.9271 4.8 24.0738 4.8C25.0871 4.8 25.9671 4.96667 26.7138 5.3C27.4738 5.62 28.0538 6.08 28.4538 6.68C28.8671 7.28 29.0738 7.99333 29.0738 8.82C29.0738 9.27333 29.0138 9.72667 28.8938 10.18C28.7738 10.62 28.5471 11.0867 28.2138 11.58C27.8804 12.0733 27.3938 12.6267 26.7538 13.24L21.9738 17.78L21.4338 16.8H29.6137V19H19.2938ZM36.9544 19.2C35.8477 19.2 34.8477 18.92 33.9544 18.36C33.0744 17.8 32.381 16.9867 31.8744 15.92C31.3677 14.84 31.1144 13.5333 31.1144 12C31.1144 10.4667 31.3677 9.16667 31.8744 8.1C32.381 7.02 33.0744 6.2 33.9544 5.64C34.8477 5.08 35.8477 4.8 36.9544 4.8C38.0744 4.8 39.0744 5.08 39.9544 5.64C40.8344 6.2 41.5277 7.02 42.0344 8.1C42.5544 9.16667 42.8144 10.4667 42.8144 12C42.8144 13.5333 42.5544 14.84 42.0344 15.92C41.5277 16.9867 40.8344 17.8 39.9544 18.36C39.0744 18.92 38.0744 19.2 36.9544 19.2ZM36.9544 16.94C37.6077 16.94 38.1744 16.7667 38.6544 16.42C39.1344 16.06 39.5077 15.5133 39.7744 14.78C40.0544 14.0467 40.1944 13.12 40.1944 12C40.1944 10.8667 40.0544 9.94 39.7744 9.22C39.5077 8.48667 39.1344 7.94667 38.6544 7.6C38.1744 7.24 37.6077 7.06 36.9544 7.06C36.3277 7.06 35.7677 7.24 35.2744 7.6C34.7944 7.94667 34.4144 8.48667 34.1344 9.22C33.8677 9.94 33.7344 10.8667 33.7344 12C33.7344 13.12 33.8677 14.0467 34.1344 14.78C34.4144 15.5133 34.7944 16.06 35.2744 16.42C35.7677 16.7667 36.3277 16.94 36.9544 16.94ZM55.4388 19.2C54.3454 19.2 53.2988 19.0467 52.2988 18.74C51.2988 18.42 50.5054 18.0133 49.9188 17.52L50.8188 15.5C51.3788 15.94 52.0721 16.3067 52.8988 16.6C53.7254 16.8933 54.5721 17.04 55.4388 17.04C56.1721 17.04 56.7654 16.96 57.2188 16.8C57.6721 16.64 58.0054 16.4267 58.2188 16.16C58.4321 15.88 58.5388 15.5667 58.5388 15.22C58.5388 14.7933 58.3854 14.4533 58.0788 14.2C57.7721 13.9333 57.3721 13.7267 56.8788 13.58C56.3988 13.42 55.8588 13.2733 55.2588 13.14C54.6721 13.0067 54.0788 12.8533 53.4788 12.68C52.8921 12.4933 52.3521 12.26 51.8587 11.98C51.3788 11.6867 50.9854 11.3 50.6788 10.82C50.3721 10.34 50.2188 9.72667 50.2188 8.98C50.2188 8.22 50.4188 7.52667 50.8188 6.9C51.2321 6.26 51.8521 5.75333 52.6788 5.38C53.5188 4.99333 54.5788 4.8 55.8588 4.8C56.6988 4.8 57.5321 4.90667 58.3588 5.12C59.1854 5.33333 59.9054 5.64 60.5187 6.04L59.6988 8.06C59.0721 7.68667 58.4254 7.41333 57.7588 7.24C57.0921 7.05333 56.4521 6.96 55.8388 6.96C55.1188 6.96 54.5321 7.04667 54.0788 7.22C53.6388 7.39333 53.3121 7.62 53.0988 7.9C52.8988 8.18 52.7988 8.5 52.7988 8.86C52.7988 9.28667 52.9454 9.63333 53.2388 9.9C53.5454 10.1533 53.9388 10.3533 54.4188 10.5C54.9121 10.6467 55.4588 10.7933 56.0588 10.94C56.6588 11.0733 57.2521 11.2267 57.8388 11.4C58.4388 11.5733 58.9788 11.8 59.4588 12.08C59.9521 12.36 60.3454 12.74 60.6388 13.22C60.9454 13.7 61.0988 14.3067 61.0988 15.04C61.0988 15.7867 60.8921 16.48 60.4788 17.12C60.0788 17.7467 59.4588 18.2533 58.6188 18.64C57.7788 19.0133 56.7188 19.2 55.4388 19.2ZM73.5169 5H76.1169V19H73.5169V5ZM66.2769 19H63.6769V5H66.2769V19ZM73.7169 13H66.0569V10.78H73.7169V13ZM86.4283 19.2C85.3349 19.2 84.3283 19.02 83.4083 18.66C82.4883 18.3 81.6883 17.8 81.0083 17.16C80.3283 16.5067 79.8016 15.7467 79.4283 14.88C79.0549 14 78.8683 13.04 78.8683 12C78.8683 10.96 79.0549 10.0067 79.4283 9.14C79.8016 8.26 80.3283 7.5 81.0083 6.86C81.6883 6.20667 82.4883 5.7 83.4083 5.34C84.3283 4.98 85.3283 4.8 86.4083 4.8C87.5016 4.8 88.5016 4.98 89.4083 5.34C90.3283 5.7 91.1283 6.20667 91.8083 6.86C92.4883 7.5 93.0149 8.26 93.3883 9.14C93.7616 10.0067 93.9483 10.96 93.9483 12C93.9483 13.04 93.7616 14 93.3883 14.88C93.0149 15.76 92.4883 16.52 91.8083 17.16C91.1283 17.8 90.3283 18.3 89.4083 18.66C88.5016 19.02 87.5083 19.2 86.4283 19.2ZM86.4083 16.92C87.1149 16.92 87.7683 16.8 88.3683 16.56C88.9683 16.32 89.4883 15.98 89.9283 15.54C90.3683 15.0867 90.7083 14.5667 90.9483 13.98C91.2016 13.38 91.3283 12.72 91.3283 12C91.3283 11.28 91.2016 10.6267 90.9483 10.04C90.7083 9.44 90.3683 8.92 89.9283 8.48C89.4883 8.02667 88.9683 7.68 88.3683 7.44C87.7683 7.2 87.1149 7.08 86.4083 7.08C85.7016 7.08 85.0483 7.2 84.4483 7.44C83.8616 7.68 83.3416 8.02667 82.8883 8.48C82.4483 8.92 82.1016 9.44 81.8483 10.04C81.6083 10.6267 81.4883 11.28 81.4883 12C81.4883 12.7067 81.6083 13.36 81.8483 13.96C82.1016 14.56 82.4483 15.0867 82.8883 15.54C83.3283 15.98 83.8483 16.32 84.4483 16.56C85.0483 16.8 85.7016 16.92 86.4083 16.92ZM96.7042 19V5H102.464C103.704 5 104.764 5.2 105.644 5.6C106.538 6 107.224 6.57333 107.704 7.32C108.184 8.06667 108.424 8.95333 108.424 9.98C108.424 11.0067 108.184 11.8933 107.704 12.64C107.224 13.3867 106.538 13.96 105.644 14.36C104.764 14.76 103.704 14.96 102.464 14.96H98.1442L99.3042 13.74V19H96.7042ZM99.3042 14.02L98.1442 12.76H102.344C103.491 12.76 104.351 12.52 104.924 12.04C105.511 11.5467 105.804 10.86 105.804 9.98C105.804 9.08667 105.511 8.4 104.924 7.92C104.351 7.44 103.491 7.2 102.344 7.2H98.1442L99.3042 5.92V14.02Z" fill="white"/>
</svg>
