<svg xmlns="http://www.w3.org/2000/svg" version="1.1" xmlns:xlink="http://www.w3.org/1999/xlink" xmlns:svgjs="http://svgjs.dev/svgjs" width="64" height="64"><svg xmlns="http://www.w3.org/2000/svg" viewBox="0 0 64 64"><path fill="#2572ff" d="M50.9 14.8h8.52L49.2 4.58v8.52a1.7 1.7 0 0 0 1.7 1.7" style="fill:#2572ff"></path><path fill="#2572ff" d="M50.9 16.8a3.704 3.704 0 0 1-3.7-3.7V4H7.7A3.704 3.704 0 0 0 4 7.7v48.6A3.704 3.704 0 0 0 7.7 60h48.6a3.704 3.704 0 0 0 3.7-3.7V16.8zM21.84 37.23a1.01 1.01 0 0 1 .13 1.41.99.99 0 0 1-.77.36 1.02 1.02 0 0 1-.64-.23l-7.2-6a1.003 1.003 0 0 1 0-1.54l7.2-6a1.001 1.001 0 0 1 1.28 1.54L15.56 32zm15.74-10.61-9.6 12a1 1 0 0 1-.78.38.96.96 0 0 1-.62-.22.98.98 0 0 1-.16-1.4l9.6-12a.996.996 0 0 1 1.56 1.24m13.06 6.15-7.2 6a1.02 1.02 0 0 1-.64.23.99.99 0 0 1-.77-.36 1.01 1.01 0 0 1 .13-1.41L48.44 32l-6.28-5.23a1.001 1.001 0 0 1 1.28-1.54l7.2 6a1.003 1.003 0 0 1 0 1.54" style="fill:#2572ff"></path></svg><style>@media (prefers-color-scheme: light) { :root { filter: none; } }
@media (prefers-color-scheme: dark) { :root { filter: none; } }
</style></svg>